<svg width="292" height="45" viewBox="0 0 292 45" fill="none" xmlns="http://www.w3.org/2000/svg">
<path d="M2.33946 19.7372C2.52373 19.5601 2.6692 19.4261 2.80983 19.2969C3.98818 18.1914 5.3799 17.5215 6.98983 17.33C9.64233 17.019 11.8923 17.823 13.7108 19.7611C14.8164 20.9384 15.505 22.3263 15.7184 23.9151C16.0675 26.5185 15.3983 28.8108 13.4974 30.7059C12.353 31.8497 11.0001 32.6106 9.38047 32.8643C6.84435 33.2567 4.55554 32.7016 2.55767 31.084C2.39765 30.9548 2.24733 30.8064 2.0873 30.6725C1.50055 30.1891 1.17081 29.5335 0.86046 28.873C0.44828 28.0021 0.157329 27.0928 0.0264011 26.1404C0.0118536 26.0304 0.00215519 25.9251 0.00215519 25.815C0.00215519 21.3643 0.00215519 16.9185 0.00215519 12.4678C0.00215519 12.4056 -0.00269399 12.3386 0.00215519 12.2764C0.0264011 12.0802 0.103988 12.0036 0.302804 12.0036C0.879857 11.9988 1.45691 11.9988 2.02911 12.0036C2.23278 12.0036 2.30552 12.0849 2.32976 12.2812C2.33946 12.3625 2.33461 12.4439 2.33461 12.5252C2.33461 14.8176 2.33461 17.1099 2.33461 19.4022C2.33946 19.4979 2.33946 19.5936 2.33946 19.7372ZM7.81419 30.7586C8.33305 30.7634 8.87616 30.706 9.40472 30.548C11.6887 29.8732 13.3423 27.7771 13.4441 25.4178C13.5217 23.5514 12.8525 21.9817 11.4511 20.747C10.1612 19.608 8.61915 19.1964 6.91709 19.4788C5.18593 19.7659 3.81846 20.6369 2.93591 22.1588C2.16974 23.4796 2.04851 24.9057 2.32976 26.3797C2.74679 28.5763 4.87558 30.8112 7.81419 30.7586Z" fill="#0F0F0F"/>
<path d="M21.0662 25.4887C21.105 26.3692 21.2747 27.1828 21.6723 27.9389C22.4045 29.3364 23.5005 30.3413 25.0764 30.6955C27.05 31.1358 28.8297 30.6763 30.3669 29.3746C30.7791 29.0253 31.0894 28.585 31.3901 28.1399C31.521 27.9437 31.6471 27.7427 31.7731 27.5465C31.9041 27.3455 31.9817 27.3216 32.2047 27.4317C32.3696 27.513 32.5248 27.5992 32.6896 27.6853C32.9951 27.848 33.3055 28.0059 33.611 28.1686C33.8292 28.2883 33.8631 28.3697 33.7613 28.5802C32.6557 30.7864 30.9391 32.2556 28.4709 32.7868C26.9531 33.1122 25.4353 33.0548 23.9417 32.6193C22.6179 32.2317 21.522 31.4995 20.6394 30.4466C19.5823 29.1832 18.9034 27.7571 18.724 26.1252C18.4622 23.7323 19.1168 21.6075 20.7073 19.7746C22.0166 18.2671 23.6847 17.4583 25.6826 17.2908C27.0064 17.176 28.306 17.3052 29.528 17.8173C31.8653 18.7983 33.354 20.5259 34.0183 22.9427C34.2074 23.6318 34.2947 24.3401 34.3044 25.058C34.3044 25.1298 34.3093 25.2015 34.2996 25.2733C34.285 25.3977 34.2074 25.4695 34.0813 25.4791C33.9892 25.4839 33.8971 25.4839 33.8049 25.4839C29.6686 25.4839 25.5371 25.4839 21.4008 25.4839C21.3038 25.4887 21.202 25.4887 21.0662 25.4887ZM31.7247 23.4308C31.4822 22.5886 31.1621 21.8037 30.5415 21.1864C28.9946 19.6454 27.1179 19.162 25.0086 19.6741C23.3744 20.0713 22.2688 21.1337 21.6238 22.6604C21.5171 22.9044 21.4056 23.1533 21.3523 23.4308C24.8097 23.4308 28.2575 23.4308 31.7247 23.4308Z" fill="#0F0F0F"/>
<path d="M73.1479 25.4887C71.0725 25.4887 68.9971 25.4887 66.9216 25.4887C66.6161 25.4887 66.6064 25.4121 66.6404 25.795C66.7519 27.0009 67.1495 28.0969 67.9545 29.0301C68.7401 29.9346 69.705 30.5663 70.9125 30.7577C72.7891 31.0592 74.4718 30.6141 75.9168 29.3842C76.4017 28.9679 76.7605 28.4367 77.1097 27.9054C77.1921 27.7762 77.2697 27.6422 77.357 27.5178C77.4637 27.3599 77.5558 27.3264 77.7255 27.4173C78.2201 27.6709 78.7148 27.9294 79.1997 28.1926C79.3936 28.2979 79.413 28.384 79.3112 28.5946C79.0833 29.0588 78.8166 29.4991 78.5062 29.9154C77.2115 31.6526 75.4755 32.6433 73.3128 32.9113C72.1151 33.0596 70.9222 33.0022 69.7487 32.6959C68.3909 32.3418 67.2514 31.6526 66.33 30.6093C65.1953 29.322 64.468 27.848 64.2789 26.1443C64.0121 23.7563 64.6619 21.6266 66.2476 19.7889C67.5617 18.2719 69.2347 17.4583 71.2471 17.2908C72.5709 17.1808 73.8705 17.3052 75.0924 17.822C77.42 18.8031 78.9039 20.5259 79.5682 22.9283C79.7622 23.627 79.8495 24.3449 79.8543 25.0675C79.8543 25.1298 79.8592 25.192 79.8495 25.259C79.8349 25.393 79.7622 25.4743 79.6215 25.4839C79.5391 25.4887 79.4567 25.4887 79.3742 25.4887C77.2988 25.4887 75.2234 25.4887 73.1479 25.4887ZM77.2697 23.4356C76.586 20.5786 74.0353 19.4539 71.9211 19.4874C69.4868 19.5305 67.5811 20.9854 66.9168 23.4356C70.3645 23.4356 73.8074 23.4356 77.2697 23.4356Z" fill="#0F0F0F"/>
<path d="M39.2908 25.4898C39.3296 26.3703 39.4993 27.1839 39.8969 27.9448C40.6292 29.3422 41.7251 30.3472 43.301 30.7013C45.2747 31.1416 47.0543 30.6822 48.5915 29.3805C49.0037 29.0311 49.314 28.5909 49.6147 28.1458C49.7456 27.9496 49.8717 27.7486 49.9978 27.5524C50.1287 27.3514 50.2063 27.3274 50.4293 27.4375C50.5942 27.5189 50.7494 27.605 50.9142 27.6912C51.2197 27.8539 51.5301 28.0118 51.8356 28.1745C52.0538 28.2942 52.0877 28.3755 51.9859 28.5861C50.8803 30.7923 49.1637 32.2615 46.6955 32.7927C45.168 33.1181 43.6405 33.0607 42.1421 32.6204C40.828 32.2327 39.7418 31.5005 38.8641 30.4525C37.8069 29.1891 37.1281 27.7629 36.9486 26.131C36.6868 23.7382 37.3414 21.6134 38.9319 19.7805C40.2412 18.273 41.9093 17.4642 43.9072 17.2967C45.231 17.1818 46.5306 17.3111 47.7526 17.8231C50.0899 18.8042 51.5786 20.5318 52.2429 22.9486C52.432 23.6377 52.5193 24.346 52.529 25.0638C52.529 25.1356 52.5339 25.2074 52.5242 25.2792C52.5096 25.4036 52.432 25.4754 52.306 25.485C52.2138 25.4898 52.1217 25.4898 52.0296 25.4898C47.8932 25.4898 43.7617 25.4898 39.6254 25.4898C39.5235 25.4898 39.4266 25.4898 39.2908 25.4898ZM39.5769 23.4319C43.0392 23.4319 46.4821 23.4319 49.9299 23.4319C49.3334 20.7998 47.0349 19.5603 44.877 19.4933C42.4282 19.412 40.3382 20.7567 39.5769 23.4319Z" fill="#0F0F0F"/>
<path d="M102.838 25.4898C100.763 25.4898 98.6875 25.4898 96.612 25.4898C96.3065 25.4898 96.2968 25.4132 96.3308 25.796C96.4423 27.002 96.8399 28.0979 97.6449 29.0311C98.4353 29.9452 99.41 30.5769 100.627 30.7684C102.48 31.0603 104.148 30.6152 105.583 29.4092C106.01 29.0503 106.33 28.5957 106.645 28.1362C106.781 27.9352 106.907 27.7247 107.043 27.5237C107.149 27.3657 107.241 27.3322 107.411 27.4232C107.906 27.6768 108.4 27.9352 108.885 28.1984C109.079 28.3037 109.099 28.3899 108.997 28.6004C108.769 29.0646 108.502 29.5049 108.192 29.9213C106.897 31.6585 105.161 32.6491 102.998 32.9171C101.801 33.0655 100.608 33.008 99.4342 32.7018C98.0765 32.3476 96.9369 31.6585 96.0156 30.6152C94.8809 29.3279 94.1535 27.8539 93.9644 26.1502C93.6977 23.7621 94.3475 21.6325 95.9332 19.7948C97.2473 18.2777 98.9202 17.4642 100.933 17.2967C102.256 17.1866 103.556 17.311 104.778 17.8279C107.106 18.809 108.589 20.527 109.254 22.9342C109.448 23.6329 109.535 24.3508 109.54 25.0734C109.54 25.1356 109.545 25.1978 109.535 25.2648C109.52 25.3988 109.448 25.4802 109.307 25.4898C109.225 25.4945 109.142 25.4945 109.06 25.4945C106.994 25.4898 104.919 25.4898 102.838 25.4898ZM96.5975 23.4319C100.06 23.4319 103.503 23.4319 106.95 23.4319C106.359 20.8094 104.065 19.5603 101.902 19.4933C99.4633 19.412 97.3685 20.7424 96.5975 23.4319Z" fill="#0F0F0F"/>
<path d="M54.9099 20.4445C54.9099 17.8794 54.9099 15.3191 54.9099 12.754C54.9099 12.2993 54.9341 12.2754 55.3851 12.2754C55.8506 12.2754 56.3161 12.2754 56.7865 12.2754C57.2375 12.2754 57.2569 12.2945 57.2569 12.754C57.2569 14.4672 57.2569 16.1853 57.2569 17.8986C57.2569 18.2862 57.2569 18.6738 57.2569 19.0615C57.2569 19.3295 57.2278 19.3103 57.5042 19.3103C58.3819 19.3103 59.2596 19.3103 60.1373 19.3103C60.2003 19.3103 60.2634 19.3103 60.3313 19.3103C60.7386 19.3103 60.7677 19.339 60.7677 19.741C60.7677 20.167 60.7725 20.5881 60.7677 21.014C60.7628 21.3059 60.7095 21.3586 60.4088 21.3586C59.4487 21.3586 58.4886 21.3586 57.5284 21.3586C57.252 21.3586 57.2763 21.3347 57.2763 21.6027C57.2763 23.4691 57.2763 25.3403 57.2763 27.2067C57.2763 27.6757 57.2811 28.1447 57.3927 28.6041C57.5769 29.3698 57.9746 30.0015 58.5807 30.504C59.0074 30.8534 59.5311 30.9012 60.0597 30.8725C60.4185 30.8534 60.758 30.7481 61.0829 30.5901C61.1217 30.571 61.1653 30.5471 61.2041 30.5327C61.4078 30.4514 61.5048 30.4896 61.5872 30.6954C61.6793 30.9204 61.7569 31.1501 61.8442 31.3798C61.9412 31.6334 62.043 31.8823 62.1351 32.1359C62.1933 32.3034 62.1594 32.3991 61.9945 32.4613C61.0829 32.7916 60.1518 33.05 59.1626 32.9686C57.96 32.8729 56.9902 32.3369 56.2289 31.4181C55.3269 30.3365 54.9147 29.0827 54.9099 27.69C54.905 25.2828 54.905 22.8613 54.9099 20.4445Z" fill="#0F0F0F"/>
<path d="M82.8594 22.6608C82.8594 19.3826 82.8594 16.1092 82.8594 12.831C82.8594 12.3764 82.8885 12.3477 83.3589 12.3477C83.8341 12.3477 84.3093 12.3477 84.7846 12.3477C85.1483 12.3477 85.2064 12.4099 85.2113 12.7784C85.2113 13.2665 85.2113 13.7546 85.2113 14.238C85.2113 20.311 85.2113 26.3841 85.2113 32.4571C85.2113 32.9644 85.2016 32.9739 84.6924 32.9739C84.2172 32.9739 83.742 32.9739 83.2667 32.9739C82.8982 32.9739 82.8642 32.9404 82.8642 32.5672C82.8642 29.5809 82.8642 26.5946 82.8642 23.6036C82.8594 23.2925 82.8594 22.9767 82.8594 22.6608Z" fill="#0F0F0F"/>
<path d="M90.9426 22.6704C90.9426 25.9486 90.9426 29.222 90.9426 32.5002C90.9426 32.9644 90.9281 32.9787 90.4723 32.9787C89.968 32.9787 89.4685 32.9787 88.9642 32.9787C88.6587 32.9787 88.6006 32.9165 88.5957 32.6102C88.5957 32.5672 88.5957 32.5193 88.5957 32.4762C88.5957 25.9438 88.5957 19.4065 88.5957 12.8741C88.5957 12.3812 88.6248 12.3477 89.1145 12.3477C89.5801 12.3477 90.0456 12.3477 90.5159 12.3477C90.5887 12.3477 90.6614 12.3524 90.7341 12.362C90.8602 12.3764 90.9329 12.4529 90.9426 12.5774C90.9475 12.6683 90.9475 12.7592 90.9475 12.8502C90.9426 16.1188 90.9426 19.397 90.9426 22.6704Z" fill="#0F0F0F"/>
<path d="M112.119 28.4857C112.119 27.1936 112.119 25.9063 112.119 24.6141C112.119 24.0303 112.265 23.4704 112.449 22.92C112.88 21.6422 113.457 20.4362 114.427 19.4647C115.349 18.5459 116.435 17.8807 117.739 17.6127C118.239 17.5122 118.719 17.6223 119.189 17.785C119.412 17.8615 119.63 17.962 119.834 18.0817C120.014 18.187 120.043 18.2875 119.941 18.4645C119.64 18.9575 119.325 19.4456 119.019 19.9385C118.942 20.063 118.83 20.106 118.69 20.0582C117.987 19.8237 117.366 20.0151 116.823 20.4602C115.853 21.2546 115.116 22.2165 114.776 23.4321C114.655 23.8676 114.621 24.3222 114.587 24.7721C114.51 25.7723 114.485 26.7725 114.481 27.7775C114.476 29.3567 114.481 30.936 114.481 32.5153C114.481 32.9364 114.461 32.9555 114.03 32.9555C113.516 32.9555 113.006 32.9555 112.492 32.9555C112.168 32.9555 112.109 32.8933 112.109 32.5775C112.119 31.2136 112.119 29.8496 112.119 28.4857Z" fill="#0F0F0F"/>
<rect x="140" width="1" height="45" fill="#BDBDBD"/>
<path d="M168.453 24.0898H170.58C170.527 24.7871 170.322 25.4023 169.965 25.9355C169.613 26.4688 169.121 26.8877 168.488 27.1924C167.855 27.4912 167.091 27.6406 166.194 27.6406C165.497 27.6406 164.87 27.5264 164.313 27.2979C163.763 27.0693 163.291 26.7441 162.898 26.3223C162.512 25.8945 162.213 25.3789 162.002 24.7754C161.797 24.166 161.694 23.4834 161.694 22.7275V22.042C161.694 21.2861 161.8 20.6064 162.011 20.0029C162.222 19.3936 162.526 18.875 162.925 18.4473C163.323 18.0137 163.798 17.6855 164.349 17.4629C164.905 17.2344 165.529 17.1201 166.221 17.1201C167.129 17.1201 167.894 17.2754 168.515 17.5859C169.136 17.8906 169.619 18.3154 169.965 18.8604C170.311 19.4053 170.519 20.0293 170.589 20.7324H168.471C168.436 20.3516 168.339 20.0176 168.181 19.7305C168.022 19.4375 167.785 19.209 167.469 19.0449C167.152 18.8809 166.736 18.7988 166.221 18.7988C165.822 18.7988 165.474 18.8691 165.175 19.0098C164.876 19.1445 164.624 19.3496 164.419 19.625C164.22 19.9004 164.067 20.2402 163.962 20.6445C163.862 21.043 163.812 21.5059 163.812 22.0332V22.7275C163.812 23.2432 163.856 23.7031 163.944 24.1074C164.038 24.5059 164.182 24.8428 164.375 25.1182C164.568 25.3936 164.814 25.6045 165.113 25.751C165.418 25.8916 165.778 25.9619 166.194 25.9619C166.692 25.9619 167.1 25.8945 167.416 25.7598C167.732 25.6191 167.976 25.4082 168.146 25.127C168.315 24.8457 168.418 24.5 168.453 24.0898ZM183.792 22.1387V22.6309C183.792 23.4102 183.68 24.1074 183.458 24.7227C183.235 25.3379 182.919 25.8652 182.509 26.3047C182.104 26.7383 181.618 27.0693 181.05 27.2979C180.481 27.5264 179.854 27.6406 179.169 27.6406C178.483 27.6406 177.856 27.5264 177.288 27.2979C176.72 27.0693 176.227 26.7383 175.811 26.3047C175.395 25.8652 175.073 25.3379 174.845 24.7227C174.622 24.1074 174.511 23.4102 174.511 22.6309V22.1387C174.511 21.3594 174.622 20.6621 174.845 20.0469C175.073 19.4316 175.392 18.9043 175.803 18.4648C176.213 18.0254 176.702 17.6914 177.27 17.4629C177.839 17.2344 178.466 17.1201 179.151 17.1201C179.843 17.1201 180.47 17.2344 181.032 17.4629C181.6 17.6914 182.09 18.0254 182.5 18.4648C182.916 18.9043 183.235 19.4316 183.458 20.0469C183.68 20.6621 183.792 21.3594 183.792 22.1387ZM181.674 22.6309V22.1211C181.674 21.5879 181.618 21.1162 181.507 20.7061C181.395 20.2959 181.228 19.9502 181.006 19.6689C180.789 19.3877 180.525 19.1738 180.215 19.0273C179.904 18.8809 179.55 18.8076 179.151 18.8076C178.759 18.8076 178.404 18.8809 178.088 19.0273C177.777 19.1738 177.513 19.3877 177.297 19.6689C177.086 19.9502 176.922 20.2959 176.804 20.7061C176.693 21.1162 176.637 21.5879 176.637 22.1211V22.6309C176.637 23.1582 176.693 23.6299 176.804 24.0459C176.922 24.4561 177.089 24.8047 177.305 25.0918C177.528 25.373 177.795 25.5898 178.105 25.7422C178.422 25.8887 178.776 25.9619 179.169 25.9619C179.567 25.9619 179.919 25.8887 180.223 25.7422C180.534 25.5898 180.798 25.373 181.014 25.0918C181.231 24.8047 181.395 24.4561 181.507 24.0459C181.618 23.6299 181.674 23.1582 181.674 22.6309ZM192.846 17.2607V27.5H190.728V17.2607H192.846ZM196.256 17.2607V18.9482H187.362V17.2607H196.256ZM204.59 19.3613L201.514 27.5H199.37L203.492 17.2607H204.915L204.59 19.3613ZM207.429 27.5L204.335 19.3438L204.01 17.2607H205.46L209.574 27.5H207.429ZM207.297 23.7031V25.2939H201.444V23.7031H207.297ZM219.683 24.0898H221.81C221.757 24.7871 221.552 25.4023 221.195 25.9355C220.843 26.4688 220.351 26.8877 219.718 27.1924C219.085 27.4912 218.321 27.6406 217.424 27.6406C216.727 27.6406 216.1 27.5264 215.543 27.2979C214.992 27.0693 214.521 26.7441 214.128 26.3223C213.741 25.8945 213.443 25.3789 213.232 24.7754C213.027 24.166 212.924 23.4834 212.924 22.7275V22.042C212.924 21.2861 213.029 20.6064 213.24 20.0029C213.451 19.3936 213.756 18.875 214.154 18.4473C214.553 18.0137 215.028 17.6855 215.578 17.4629C216.135 17.2344 216.759 17.1201 217.45 17.1201C218.359 17.1201 219.123 17.2754 219.744 17.5859C220.365 17.8906 220.849 18.3154 221.195 18.8604C221.54 19.4053 221.748 20.0293 221.819 20.7324H219.7C219.665 20.3516 219.569 20.0176 219.41 19.7305C219.252 19.4375 219.015 19.209 218.698 19.0449C218.382 18.8809 217.966 18.7988 217.45 18.7988C217.052 18.7988 216.703 18.8691 216.404 19.0098C216.106 19.1445 215.854 19.3496 215.649 19.625C215.449 19.9004 215.297 20.2402 215.192 20.6445C215.092 21.043 215.042 21.5059 215.042 22.0332V22.7275C215.042 23.2432 215.086 23.7031 215.174 24.1074C215.268 24.5059 215.411 24.8428 215.605 25.1182C215.798 25.3936 216.044 25.6045 216.343 25.751C216.648 25.8916 217.008 25.9619 217.424 25.9619C217.922 25.9619 218.329 25.8945 218.646 25.7598C218.962 25.6191 219.205 25.4082 219.375 25.127C219.545 24.8457 219.648 24.5 219.683 24.0898ZM216.659 27.4736H218.233L218.127 27.9658C218.461 28.0244 218.766 28.165 219.041 28.3877C219.322 28.6162 219.463 28.9824 219.463 29.4863C219.463 29.7852 219.402 30.0547 219.279 30.2949C219.155 30.5352 218.971 30.7402 218.725 30.9102C218.485 31.0859 218.183 31.2207 217.82 31.3145C217.462 31.4082 217.046 31.4551 216.571 31.4551L216.51 30.2598C216.738 30.2598 216.944 30.2305 217.125 30.1719C217.307 30.1191 217.45 30.0342 217.556 29.917C217.667 29.7998 217.723 29.6475 217.723 29.46C217.723 29.2783 217.676 29.1377 217.582 29.0381C217.488 28.9385 217.342 28.8623 217.143 28.8096C216.949 28.7568 216.697 28.7188 216.387 28.6953L216.659 27.4736ZM235.021 22.1387V22.6309C235.021 23.4102 234.91 24.1074 234.688 24.7227C234.465 25.3379 234.148 25.8652 233.738 26.3047C233.334 26.7383 232.848 27.0693 232.279 27.2979C231.711 27.5264 231.084 27.6406 230.398 27.6406C229.713 27.6406 229.086 27.5264 228.518 27.2979C227.949 27.0693 227.457 26.7383 227.041 26.3047C226.625 25.8652 226.303 25.3379 226.074 24.7227C225.852 24.1074 225.74 23.4102 225.74 22.6309V22.1387C225.74 21.3594 225.852 20.6621 226.074 20.0469C226.303 19.4316 226.622 18.9043 227.032 18.4648C227.442 18.0254 227.932 17.6914 228.5 17.4629C229.068 17.2344 229.695 17.1201 230.381 17.1201C231.072 17.1201 231.699 17.2344 232.262 17.4629C232.83 17.6914 233.319 18.0254 233.729 18.4648C234.146 18.9043 234.465 19.4316 234.688 20.0469C234.91 20.6621 235.021 21.3594 235.021 22.1387ZM232.903 22.6309V22.1211C232.903 21.5879 232.848 21.1162 232.736 20.7061C232.625 20.2959 232.458 19.9502 232.235 19.6689C232.019 19.3877 231.755 19.1738 231.444 19.0273C231.134 18.8809 230.779 18.8076 230.381 18.8076C229.988 18.8076 229.634 18.8809 229.317 19.0273C229.007 19.1738 228.743 19.3877 228.526 19.6689C228.315 19.9502 228.151 20.2959 228.034 20.7061C227.923 21.1162 227.867 21.5879 227.867 22.1211V22.6309C227.867 23.1582 227.923 23.6299 228.034 24.0459C228.151 24.4561 228.318 24.8047 228.535 25.0918C228.758 25.373 229.024 25.5898 229.335 25.7422C229.651 25.8887 230.006 25.9619 230.398 25.9619C230.797 25.9619 231.148 25.8887 231.453 25.7422C231.764 25.5898 232.027 25.373 232.244 25.0918C232.461 24.8047 232.625 24.4561 232.736 24.0459C232.848 23.6299 232.903 23.1582 232.903 22.6309ZM232.297 13.8418L233.589 13.9385C233.589 14.3662 233.504 14.75 233.334 15.0898C233.164 15.4238 232.933 15.6875 232.64 15.8809C232.347 16.0742 232.016 16.1709 231.646 16.1709C231.359 16.1709 231.116 16.1299 230.917 16.0479C230.718 15.9658 230.536 15.8721 230.372 15.7666C230.208 15.6611 230.038 15.5703 229.862 15.4941C229.692 15.4121 229.49 15.3711 229.256 15.3711C229.033 15.3711 228.843 15.4531 228.685 15.6172C228.532 15.7812 228.456 16.001 228.456 16.2764L227.155 16.2061C227.155 15.7842 227.24 15.4033 227.41 15.0635C227.58 14.7236 227.812 14.4541 228.104 14.2549C228.397 14.0557 228.729 13.9561 229.098 13.9561C229.338 13.9561 229.555 13.9971 229.748 14.0791C229.947 14.1553 230.135 14.2461 230.311 14.3516C230.492 14.457 230.677 14.5508 230.864 14.6328C231.052 14.7148 231.26 14.7559 231.488 14.7559C231.711 14.7559 231.901 14.6709 232.06 14.501C232.218 14.3311 232.297 14.1113 232.297 13.8418ZM246.774 25.8213V27.5H240.912V25.8213H246.774ZM241.58 17.2607V27.5H239.462V17.2607H241.58ZM246.018 21.3652V23.0439H240.912V21.3652H246.018ZM246.757 17.2607V18.9482H240.912V17.2607H246.757ZM256.646 24.8193C256.646 24.626 256.611 24.4531 256.541 24.3008C256.476 24.1484 256.362 24.0107 256.198 23.8877C256.04 23.7588 255.82 23.6387 255.539 23.5273C255.263 23.416 254.915 23.3105 254.493 23.2109C253.883 23.0645 253.344 22.9004 252.876 22.7188C252.413 22.5312 252.023 22.3145 251.707 22.0684C251.39 21.8223 251.15 21.5322 250.986 21.1982C250.828 20.8643 250.749 20.4746 250.749 20.0293C250.749 19.6016 250.842 19.2119 251.03 18.8604C251.217 18.5029 251.484 18.1953 251.83 17.9375C252.175 17.6738 252.586 17.4717 253.06 17.3311C253.535 17.1904 254.056 17.1201 254.625 17.1201C255.451 17.1201 256.169 17.2549 256.778 17.5244C257.387 17.7939 257.859 18.166 258.193 18.6406C258.533 19.1094 258.703 19.6543 258.703 20.2754H256.585C256.585 19.9824 256.508 19.7188 256.356 19.4844C256.21 19.25 255.993 19.0625 255.706 18.9219C255.419 18.7812 255.058 18.7109 254.625 18.7109C254.209 18.7109 253.866 18.7725 253.596 18.8955C253.327 19.0127 253.125 19.168 252.99 19.3613C252.861 19.5488 252.796 19.7539 252.796 19.9766C252.796 20.1523 252.835 20.3105 252.911 20.4512C252.993 20.5918 253.122 20.7207 253.297 20.8379C253.473 20.9551 253.702 21.0664 253.983 21.1719C254.264 21.2773 254.607 21.3799 255.011 21.4795C255.615 21.6201 256.148 21.7871 256.611 21.9805C257.074 22.1738 257.461 22.4023 257.771 22.666C258.082 22.9238 258.313 23.2285 258.465 23.5801C258.624 23.9258 258.703 24.3213 258.703 24.7666C258.703 25.2178 258.609 25.6221 258.421 25.9795C258.234 26.3311 257.964 26.6299 257.613 26.876C257.267 27.1221 256.851 27.3125 256.365 27.4473C255.879 27.5762 255.337 27.6406 254.739 27.6406C254.212 27.6406 253.687 27.5762 253.166 27.4473C252.65 27.3184 252.184 27.1191 251.768 26.8496C251.352 26.5801 251.018 26.2373 250.766 25.8213C250.52 25.3994 250.397 24.9043 250.397 24.3359H252.524C252.524 24.6406 252.577 24.9043 252.682 25.127C252.794 25.3438 252.949 25.5225 253.148 25.6631C253.353 25.7979 253.596 25.8975 253.878 25.9619C254.159 26.0264 254.469 26.0586 254.809 26.0586C255.237 26.0586 255.586 26.0029 255.855 25.8916C256.13 25.7744 256.33 25.6221 256.453 25.4346C256.582 25.2471 256.646 25.042 256.646 24.8193Z" fill="#BDBDBD"/>
<path d="M286 22.5L283 31.5L277 13.5L274 22.5" stroke="#BDBDBD" stroke-width="2" stroke-linecap="round" stroke-linejoin="round"/>
</svg>
